HIERARCHY
ROOT reference
{
  OFFSET 0 0 0
  CHANNELS 6 Xposition Yposition Zposition Zrotation Xrotation Yrotation
  JOINT Hips
  {
    OFFSET 356.501 91.4882 232.072
    CHANNELS 3 Zrotation Xrotation Yrotation
    JOINT RightUpLeg
    {
      OFFSET -9.22368 -1.56954 0.0182318
      CHANNELS 3 Zrotation Xrotation Yrotation
      JOINT RightLeg
      {
        OFFSET 0.0168043 -41.8502 0.039304
        CHANNELS 3 Zrotation Xrotation Yrotation
        JOINT RightFoot
        {
          OFFSET -1.24655 -41.4872 1.84727
          CHANNELS 3 Zrotation Xrotation Yrotation
          End Site
          {
            OFFSET 0 -7.69 17.5
          }
        }
      }
    }
    JOINT LeftUpLeg
    {
      OFFSET 9.32755 -1.5915 0.117934
      CHANNELS 3 Zrotation Xrotation Yrotation
      JOINT LeftLeg
      {
        OFFSET 0.115891 -41.8441 0.138627
        CHANNELS 3 Zrotation Xrotation Yrotation
        JOINT LeftFoot
        {
          OFFSET -0.00258131 -42.0603 -2.16995
          CHANNELS 3 Zrotation Xrotation Yrotation
          End Site
          {
            OFFSET 0 -7.69 17.5
          }
        }
      }
    }
    JOINT Spine
    {
      OFFSET 0.0618908 14.3142 0.263402
      CHANNELS 3 Zrotation Xrotation Yrotation
      JOINT Spine1
      {
        OFFSET 0.00953893 9.71784 0.0772804
        CHANNELS 3 Zrotation Xrotation Yrotation
        JOINT Spine2
        {
          OFFSET 0.0659978 10.1164 -0.109334
          CHANNELS 3 Zrotation Xrotation Yrotation
          JOINT Spine3
          {
            OFFSET 0.00354353 9.7233 0.0181573
            CHANNELS 3 Zrotation Xrotation Yrotation
            JOINT Neck
            {
              OFFSET -0.106539 10.3631 0.143191
              CHANNELS 3 Zrotation Xrotation Yrotation
              JOINT Head
              {
                OFFSET 0.0687213 9.49492 0.178169
                CHANNELS 3 Zrotation Xrotation Yrotation
                End Site
                {
                  OFFSET 0 15.95 0
                }
              }
            }
            JOINT RightShoulder
            {
              OFFSET -3.17341 6.93407 0.0508814
              CHANNELS 3 Zrotation Xrotation Yrotation
              JOINT RightArm
              {
                OFFSET -12.8122 0.02699 0.0058978
                CHANNELS 3 Zrotation Xrotation Yrotation
                JOINT RightForeArm
                {
                  OFFSET -26.4689 -0.0132424 0.0432591
                  CHANNELS 3 Zrotation Xrotation Yrotation
                  JOINT RightHand
                  {
                    OFFSET -25.9762 -0.0747187 0.0544432
                    CHANNELS 3 Zrotation Xrotation Yrotation
                    JOINT RightHandThumb1
                    {
                      OFFSET -2.48905 0.190105 3.12053
                      CHANNELS 3 Zrotation Xrotation Yrotation
                      JOINT RightHandThumb2
                      {
                        OFFSET -3.68274 0 0
                        CHANNELS 3 Zrotation Xrotation Yrotation
                        JOINT RightHandThumb3
                        {
                          OFFSET -2.55832 0 0
                          CHANNELS 3 Zrotation Xrotation Yrotation
                          End Site
                          {
                            OFFSET -2.194 0 0
                          }
                        }
                      }
                    }
                    JOINT RightInHandIndex
                    {
                      OFFSET -3.22368 0.508421 1.97842
                      CHANNELS 3 Zrotation Xrotation Yrotation
                      JOINT RightHandIndex1
                      {
                        OFFSET -5.21684 -0.091368 0.999158
                        CHANNELS 3 Zrotation Xrotation Yrotation
                        JOINT RightHandIndex2
                        {
                          OFFSET -3.61937 0 0
                          CHANNELS 3 Zrotation Xrotation Yrotation
                          JOINT RightHandIndex3
                          {
                            OFFSET -2.0521 0 0
                            CHANNELS 3 Zrotation Xrotation Yrotation
                            End Site
                            {
                              OFFSET -1.805 0 0
                            }
                          }
                        }
                      }
                    }
                    JOINT RightInHandMiddle
                    {
                      OFFSET -3.38211 0.517263 0.756737
                      CHANNELS 3 Zrotation Xrotation Yrotation
                      JOINT RightHandMiddle1
                      {
                        OFFSET -5.17411 -0.084 0.313895
                        CHANNELS 3 Zrotation Xrotation Yrotation
                        JOINT RightHandMiddle2
                        {
                          OFFSET -3.94947 0 0
                          CHANNELS 3 Zrotation Xrotation Yrotation
                          JOINT RightHandMiddle3
                          {
                            OFFSET -2.47579 0 0
                            CHANNELS 3 Zrotation Xrotation Yrotation
                            End Site
                            {
                              OFFSET -1.975 0 0
                            }
                          }
                        }
                      }
                    }
                    JOINT RightInHandRing
                    {
                      OFFSET -3.36516 0.537895 -0.128947
                      CHANNELS 3 Zrotation Xrotation Yrotation
                      JOINT RightHandRing1
                      {
                        OFFSET -4.63474 -0.022105 -0.478947
                        CHANNELS 3 Zrotation Xrotation Yrotation
                        JOINT RightHandRing2
                        {
                          OFFSET -3.44238 0 0
                          CHANNELS 3 Zrotation Xrotation Yrotation
                          JOINT RightHandRing3
                          {
                            OFFSET -2.3881 0 0
                            CHANNELS 3 Zrotation Xrotation Yrotation
                            End Site
                            {
                              OFFSET -1.857 0 0
                            }
                          }
                        }
                      }
                    }
                    JOINT RightInHandPinky
                    {
                      OFFSET -3.16105 0.469368 -1.20179
                      CHANNELS 3 Zrotation Xrotation Yrotation
                      JOINT RightHandPinky1
                      {
                        OFFSET -4.14105 -0.022105 -1.09053
                        CHANNELS 3 Zrotation Xrotation Yrotation
                        JOINT RightHandPinky2
                        {
                          OFFSET -2.75653 0 0
                          CHANNELS 3 Zrotation Xrotation Yrotation
                          JOINT RightHandPinky3
                          {
                            OFFSET -1.74189 0 0
                            CHANNELS 3 Zrotation Xrotation Yrotation
                            End Site
                            {
                              OFFSET -1.645 0 0
                            }
                          }
                        }
                      }
                    }
                  }
                }
              }
            }
            JOINT LeftShoulder
            {
              OFFSET 3.13763 6.93537 0.265461
              CHANNELS 3 Zrotation Xrotation Yrotation
              JOINT LeftArm
              {
                OFFSET 12.4516 -0.0856895 0.350644
                CHANNELS 3 Zrotation Xrotation Yrotation
                JOINT LeftForeArm
                {
                  OFFSET 26.6962 -0.139113 0.0812581
                  CHANNELS 3 Zrotation Xrotation Yrotation
                  JOINT LeftHand
                  {
                    OFFSET 25.9561 0.0264111 -0.243705
                    CHANNELS 3 Zrotation Xrotation Yrotation
                    JOINT LeftHandThumb1
                    {
                      OFFSET 2.48905 0.190105 3.12053
                      CHANNELS 3 Zrotation Xrotation Yrotation
                      JOINT LeftHandThumb2
                      {
                        OFFSET 3.68274 0 0
                        CHANNELS 3 Zrotation Xrotation Yrotation
                        JOINT LeftHandThumb3
                        {
                          OFFSET 2.55832 0 0
                          CHANNELS 3 Zrotation Xrotation Yrotation
                          End Site
                          {
                            OFFSET 2.194 0 0
                          }
                        }
                      }
                    }
                    JOINT LeftInHandIndex
                    {
                      OFFSET 3.22368 0.508421 1.97842
                      CHANNELS 3 Zrotation Xrotation Yrotation
                      JOINT LeftHandIndex1
                      {
                        OFFSET 5.21684 -0.091368 0.999158
                        CHANNELS 3 Zrotation Xrotation Yrotation
                        JOINT LeftHandIndex2
                        {
                          OFFSET 3.61937 0 0
                          CHANNELS 3 Zrotation Xrotation Yrotation
                          JOINT LeftHandIndex3
                          {
                            OFFSET 2.0521 0 0
                            CHANNELS 3 Zrotation Xrotation Yrotation
                            End Site
                            {
                              OFFSET 1.805 0 0
                            }
                          }
                        }
                      }
                    }
                    JOINT LeftInHandMiddle
                    {
                      OFFSET 3.38211 0.517263 0.756737
                      CHANNELS 3 Zrotation Xrotation Yrotation
                      JOINT LeftHandMiddle1
                      {
                        OFFSET 5.17411 -0.084 0.313895
                        CHANNELS 3 Zrotation Xrotation Yrotation
                        JOINT LeftHandMiddle2
                        {
                          OFFSET 3.94947 0 0
                          CHANNELS 3 Zrotation Xrotation Yrotation
                          JOINT LeftHandMiddle3
                          {
                            OFFSET 2.47579 0 0
                            CHANNELS 3 Zrotation Xrotation Yrotation
                            End Site
                            {
                              OFFSET 1.975 0 0
                            }
                          }
                        }
                      }
                    }
                    JOINT LeftInHandRing
                    {
                      OFFSET 3.36516 0.537895 -0.128947
                      CHANNELS 3 Zrotation Xrotation Yrotation
                      JOINT LeftHandRing1
                      {
                        OFFSET 4.63474 -0.022105 -0.478947
                        CHANNELS 3 Zrotation Xrotation Yrotation
                        JOINT LeftHandRing2
                        {
                          OFFSET 3.44238 0 0
                          CHANNELS 3 Zrotation Xrotation Yrotation
                          JOINT LeftHandRing3
                          {
                            OFFSET 2.3881 0 0
                            CHANNELS 3 Zrotation Xrotation Yrotation
                            End Site
                            {
                              OFFSET 1.857 0 0
                            }
                          }
                        }
                      }
                    }
                    JOINT LeftInHandPinky
                    {
                      OFFSET 3.16105 0.469368 -1.20179
                      CHANNELS 3 Zrotation Xrotation Yrotation
                      JOINT LeftHandPinky1
                      {
                        OFFSET 4.14105 -0.022105 -1.09053
                        CHANNELS 3 Zrotation Xrotation Yrotation
                        JOINT LeftHandPinky2
                        {
                          OFFSET 2.75653 0 0
                          CHANNELS 3 Zrotation Xrotation Yrotation
                          JOINT LeftHandPinky3
                          {
                            OFFSET 1.74189 0 0
                            CHANNELS 3 Zrotation Xrotation Yrotation
                            End Site
                            {
                              OFFSET 1.645 0 0
                            }
                          }
                        }
                      }
                    }
                  }
                }
              }
            }
          }
        }
      }
    }
  }
}
MOTION
Frames: 2
Frame Time: 0.00833333
1.500000000000000000e+02 0.000000000000000000e+00 0.000000000000000000e+00 0.000000000000000000e+00 0.000000000000000000e+00 -0.000000000000000000e+00 -1.157206304811883666e-03 6.542130654258156500e-04 -1.711711451244903948e-03 7.978543197710420351e-03 9.247233905065769394e-03 8.714951385236160974e-02 7.981686120977297613e-03 8.258482107299161892e-03 -8.237823571679414592e-02 1.245413509982528765e-03 -1.340967389388174683e-03 -2.176206418573327882e-03 -7.947905794227265669e-04 2.739927582565111243e-03 2.117143262913105933e-03 -3.540593293218582526e-03 -5.386012428828920208e-03 1.014669036991469424e-02 1.621243882495708097e-02 1.561511608402445239e-02 -7.834632682260419395e-03 2.689040852018482748e-04 -1.249488529240110708e-03 3.810059716813259979e-03 3.103672556965473010e-04 -1.922757757781805982e-04 9.985967475547217163e-04 4.229748873696881524e-04 -2.684549966085108337e-04 1.601260710222548924e-03 4.972476530114534551e-05 7.401417533709835582e-05 3.561214828674147143e-05 -3.860346769327669997e-04 9.662980226611173236e-04 1.396419121294561290e-03 -2.056839659249353760e-04 1.733634677434999329e-03 -1.163236091851681860e-03 4.707488890470987002e-03 5.883043187805093652e-03 7.444891480067634005e-04 7.187560327511196070e-03 5.715173439430992937e-03 1.650916635021216355e-02 -3.104492578594249264e-02 -2.561647213113021904e-02 1.375797119124777708e-02 -1.493830623632098030e-03 -2.475558312062666952e-02 -8.246673511262087725e-03 0.000000000000000000e+00 0.000000000000000000e+00 0.000000000000000000e+00 -1.809644450521489857e-15 -3.736825725737076329e-16 0.000000000000000000e+00 1.818899307418889479e-15 5.964623427133447746e-16 0.000000000000000000e+00 2.851542310853045157e-15 3.953893543945280737e-16 1.000773111109635338e-15 0.000000000000000000e+00 0.000000000000000000e+00 0.000000000000000000e+00 0.000000000000000000e+00 -8.847475662830770107e-16 -8.746717715036161661e-16 0.000000000000000000e+00 -1.275927545619836862e-15 2.474122122946209380e-15 2.851542310853045157e-15 3.953893543945280737e-16 1.000773111109635338e-15 0.000000000000000000e+00 -3.335905386148858613e-15 8.345295153919819887e-16 0.000000000000000000e+00 -8.303536366886259009e-16 4.680288149937558217e-16 0.000000000000000000e+00 1.992095790681585423e-15 -1.850832270986889178e-15 2.851542310853045157e-15 3.953893543945280737e-16 1.000773111109635338e-15 0.000000000000000000e+00 0.000000000000000000e+00 0.000000000000000000e+00 0.000000000000000000e+00 6.902921740667160417e-16 5.551951449270510891e-16 0.000000000000000000e+00 1.618241905857544751e-15 1.358634128531259468e-16 2.851542310853045157e-15 3.953893543945280737e-16 1.000773111109635338e-15 0.000000000000000000e+00 0.000000000000000000e+00 0.000000000000000000e+00 0.000000000000000000e+00 2.377879669482596739e-16 1.414537442789161474e-15 0.000000000000000000e+00 -3.233147264864058152e-15 -1.334882884747372208e-15 -8.950269721572019430e-03 2.731568416887476987e-03 -1.706741247907024887e-03 7.745511293482837921e-03 4.004717875254603689e-03 -6.524608640473779364e-03 -2.273237761959907605e-04 -1.454153407126480444e-03 5.759147160243301752e-04 1.603726229214194913e-03 -4.359164254119744244e-04 2.305534671137965765e-04 0.000000000000000000e+00 0.000000000000000000e+00 0.000000000000000000e+00 -2.203644416446569389e-15 1.811624738652085427e-16 0.000000000000000000e+00 1.173646227467952071e-15 9.635937749819379011e-16 0.000000000000000000e+00 3.228940074072831318e-16 -5.636394278537322593e-16 2.878193580553273395e-16 0.000000000000000000e+00 0.000000000000000000e+00 0.000000000000000000e+00 0.000000000000000000e+00 6.090438477624787537e-17 -5.530341835876907096e-18 0.000000000000000000e+00 -5.226804464316180299e-16 6.672361019839775675e-16 3.228940074072831318e-16 -5.636394278537322593e-16 2.878193580553273395e-16 0.000000000000000000e+00 1.248688563761186487e-16 -2.775751245786934077e-17 0.000000000000000000e+00 -8.903814853723167224e-16 8.422905643307388121e-16 0.000000000000000000e+00 3.016984196598945918e-16 8.720682385438115896e-18 3.228940074072831318e-16 -5.636394278537322593e-16 2.878193580553273395e-16 0.000000000000000000e+00 0.000000000000000000e+00 0.000000000000000000e+00 0.000000000000000000e+00 1.382544676219043890e-16 4.926050584388974512e-16 0.000000000000000000e+00 -2.065409736473598253e-16 5.944193810514176938e-16 3.228940074072831318e-16 -5.636394278537322593e-16 2.878193580553273395e-16 0.000000000000000000e+00 0.000000000000000000e+00 0.000000000000000000e+00 0.000000000000000000e+00 2.081664307335566925e-16 1.353884080346166885e-16 0.000000000000000000e+00 -5.922363190459776608e-16 1.071916813349172530e-15
1.500000000000000000e+02 0.000000000000000000e+00 0.000000000000000000e+00 0.000000000000000000e+00 0.000000000000000000e+00 -0.000000000000000000e+00 1.041143264301682986e-03 7.945058355202649913e-04 3.777274437690957432e-03 -1.703085349192057923e-02 -2.063330099954204661e-02 -2.005938323032445958e-01 -1.910084899127491645e-02 -1.593062861628347787e-02 1.904268933588581236e-01 -1.209814883117895897e-03 1.342281041629809915e-04 2.336357599435398731e-03 -2.468718641595243901e-04 -6.603030997789629750e-04 6.672834890055876107e-03 2.074179415708100188e-02 1.383952615735970990e-02 -4.270972442113335488e-02 -7.169558807546108463e-03 -1.073202299598596289e-02 2.320746972382133066e-02 -1.365239123320610964e-03 2.191765149916622118e-03 -4.825919051061010150e-03 -4.276566475444203738e-04 3.446286309335104417e-04 -1.243739920522099734e-03 -5.294917322953251711e-04 4.919702899754627981e-04 -2.020798831894976815e-03 -2.015686612094168549e-05 2.790373035656491314e-05 4.213241513500124043e-05 5.716450418861455593e-04 1.275515096434590634e-03 6.609516926065914450e-04 3.840624126716943310e-03 -3.947613735608197609e-03 1.789667658703936821e-04 1.089816983737186724e-03 -2.861352211354473585e-03 3.337552808577448626e-02 -4.143586255200833873e-02 -1.878485876566321142e-02 -5.006097544846184466e-02 1.666129596705410651e-02 5.167492267835056309e-03 -6.231564430783316337e-03 -1.559636798634590933e-02 6.129930504566497018e-02 -5.518429107219391394e-02 0.000000000000000000e+00 0.000000000000000000e+00 0.000000000000000000e+00 3.391892427059037736e-16 -6.912541837478504300e-16 0.000000000000000000e+00 -1.289493509009716611e-15 -1.498775294004802989e-15 0.000000000000000000e+00 -1.137785473000283282e-15 1.414696344166616535e-15 -1.486231866323992740e-15 0.000000000000000000e+00 0.000000000000000000e+00 0.000000000000000000e+00 0.000000000000000000e+00 1.229223803406187389e-15 4.678547223776047570e-15 0.000000000000000000e+00 1.310648315765767412e-15 -4.450896983758491058e-15 -1.137785473000283282e-15 1.414696344166616535e-15 -1.486231866323992740e-15 0.000000000000000000e+00 4.734417623919434661e-15 -1.303437784995798073e-15 0.000000000000000000e+00 2.247787592016358280e-15 1.620571541313578532e-16 0.000000000000000000e+00 -2.304720652934152743e-15 3.931841707138166558e-15 -1.137785473000283282e-15 1.414696344166616535e-15 -1.486231866323992740e-15 0.000000000000000000e+00 0.000000000000000000e+00 0.000000000000000000e+00 0.000000000000000000e+00 1.005510521207756053e-15 1.478128716607230981e-16 0.000000000000000000e+00 -2.034045465587089629e-15 -2.892378977724426551e-16 -1.137785473000283282e-15 1.414696344166616535e-15 -1.486231866323992740e-15 0.000000000000000000e+00 0.000000000000000000e+00 0.000000000000000000e+00 0.000000000000000000e+00 -1.806229471452609519e-15 -2.400228062952037325e-15 0.000000000000000000e+00 5.379758801021408319e-15 1.484948191068645148e-15 2.837294743629133892e-02 -5.852641253580368949e-03 5.505145182682730925e-02 8.183474857969889188e-03 -1.284704163936202514e-02 -5.027399543488679512e-02 -1.350086408741398274e-04 1.136626169565333518e-03 6.163682621812853132e-03 -4.540252160721584742e-04 -1.986685085900538605e-03 -8.365971514757422275e-04 0.000000000000000000e+00 0.000000000000000000e+00 0.000000000000000000e+00 8.464016148553261175e-15 -3.191652666529137857e-15 0.000000000000000000e+00 -5.859441366114925086e-16 -4.289129117034483815e-15 0.000000000000000000e+00 1.841352413979920948e-16 3.275598120927732138e-16 -4.926386217803320625e-16 0.000000000000000000e+00 0.000000000000000000e+00 0.000000000000000000e+00 0.000000000000000000e+00 7.063983065252796293e-16 -3.507179692531965021e-16 0.000000000000000000e+00 2.425375967869237110e-16 2.248393756442339426e-16 1.841352413979920948e-16 3.275598120927732138e-16 -4.926386217803320625e-16 0.000000000000000000e+00 -1.029169864556851610e-15 1.338001098971248020e-16 0.000000000000000000e+00 1.371230060662181861e-15 -2.608963125662831231e-15 0.000000000000000000e+00 -6.972484336029258830e-16 2.984572293406676770e-15 1.841352413979920948e-16 3.275598120927732138e-16 -4.926386217803320625e-16 0.000000000000000000e+00 0.000000000000000000e+00 0.000000000000000000e+00 0.000000000000000000e+00 1.039467227779655148e-15 -4.097986270054351665e-16 0.000000000000000000e+00 4.283084076253187198e-17 -7.467463474280701071e-16 1.841352413979920948e-16 3.275598120927732138e-16 -4.926386217803320625e-16 0.000000000000000000e+00 0.000000000000000000e+00 0.000000000000000000e+00 0.000000000000000000e+00 1.361185679230062611e-15 2.405444452652442286e-17 0.000000000000000000e+00 -9.160252454281632151e-16 -1.980760256890314864e-15
